<mxfile host="app.diagrams.net" modified="2022-05-10T05:14:38.169Z" agent="5.0 (Windows NT 10.0; Win64; x64) AppleWebKit/537.36 (KHTML, like Gecko) Chrome/101.0.4951.54 Safari/537.36" etag="U8z92805IDgyn8Jk0dRm" version="18.0.2" type="github">
  <diagram id="kgpKYQtTHZ0yAKxKKP6v" name="Page-1">
    <mxGraphModel dx="1303" dy="845" grid="1" gridSize="10" guides="1" tooltips="1" connect="1" arrows="1" fold="1" page="1" pageScale="1" pageWidth="850" pageHeight="1100" math="0" shadow="0">
      <root>
        <mxCell id="0" />
        <mxCell id="1" parent="0" />
        <mxCell id="JWIA_QnLZYUbKN6OW2iQ-1" value=":UserController" style="shape=umlLifeline;perimeter=lifelinePerimeter;container=1;collapsible=0;recursiveResize=0;rounded=0;shadow=0;strokeWidth=1;" vertex="1" parent="1">
          <mxGeometry x="70" y="80" width="100" height="300" as="geometry" />
        </mxCell>
        <mxCell id="JWIA_QnLZYUbKN6OW2iQ-2" value="" style="points=[];perimeter=orthogonalPerimeter;rounded=0;shadow=0;strokeWidth=1;" vertex="1" parent="JWIA_QnLZYUbKN6OW2iQ-1">
          <mxGeometry x="45" y="70" width="10" height="190" as="geometry" />
        </mxCell>
        <mxCell id="JWIA_QnLZYUbKN6OW2iQ-3" value="FILE DTO" style="verticalAlign=bottom;startArrow=oval;endArrow=block;startSize=8;shadow=0;strokeWidth=1;" edge="1" parent="JWIA_QnLZYUbKN6OW2iQ-1" target="JWIA_QnLZYUbKN6OW2iQ-2">
          <mxGeometry relative="1" as="geometry">
            <mxPoint x="-30" y="70" as="sourcePoint" />
          </mxGeometry>
        </mxCell>
        <mxCell id="JWIA_QnLZYUbKN6OW2iQ-4" value="ImageUpLoadService" style="shape=umlLifeline;perimeter=lifelinePerimeter;container=1;collapsible=0;recursiveResize=0;rounded=0;shadow=0;strokeWidth=1;" vertex="1" parent="1">
          <mxGeometry x="360" y="80" width="140" height="410" as="geometry" />
        </mxCell>
        <mxCell id="JWIA_QnLZYUbKN6OW2iQ-5" value="" style="points=[];perimeter=orthogonalPerimeter;rounded=0;shadow=0;strokeWidth=1;" vertex="1" parent="JWIA_QnLZYUbKN6OW2iQ-4">
          <mxGeometry x="65" y="80" width="10" height="270" as="geometry" />
        </mxCell>
        <mxCell id="JWIA_QnLZYUbKN6OW2iQ-6" value="FILE BUILDER" style="verticalAlign=bottom;endArrow=block;entryX=0;entryY=0;shadow=0;strokeWidth=1;" edge="1" parent="1" source="JWIA_QnLZYUbKN6OW2iQ-2" target="JWIA_QnLZYUbKN6OW2iQ-5">
          <mxGeometry relative="1" as="geometry">
            <mxPoint x="275" y="160" as="sourcePoint" />
          </mxGeometry>
        </mxCell>
        <mxCell id="JWIA_QnLZYUbKN6OW2iQ-7" value="UserBGImageService" style="shape=umlLifeline;perimeter=lifelinePerimeter;container=1;collapsible=0;recursiveResize=0;rounded=0;shadow=0;strokeWidth=1;" vertex="1" parent="1">
          <mxGeometry x="600" y="80" width="160" height="170" as="geometry" />
        </mxCell>
        <mxCell id="JWIA_QnLZYUbKN6OW2iQ-8" value="" style="points=[];perimeter=orthogonalPerimeter;rounded=0;shadow=0;strokeWidth=1;" vertex="1" parent="JWIA_QnLZYUbKN6OW2iQ-7">
          <mxGeometry x="75" y="60" width="10" height="70" as="geometry" />
        </mxCell>
        <mxCell id="JWIA_QnLZYUbKN6OW2iQ-9" value=":Server Disk" style="shape=umlLifeline;perimeter=lifelinePerimeter;container=1;collapsible=0;recursiveResize=0;rounded=0;shadow=0;strokeWidth=1;" vertex="1" parent="1">
          <mxGeometry x="630" y="270" width="100" height="220" as="geometry" />
        </mxCell>
        <mxCell id="JWIA_QnLZYUbKN6OW2iQ-10" value="" style="points=[];perimeter=orthogonalPerimeter;rounded=0;shadow=0;strokeWidth=1;" vertex="1" parent="JWIA_QnLZYUbKN6OW2iQ-9">
          <mxGeometry x="45" y="80" width="10" height="70" as="geometry" />
        </mxCell>
        <mxCell id="JWIA_QnLZYUbKN6OW2iQ-11" value="FILE BUILDER" style="verticalAlign=bottom;endArrow=block;shadow=0;strokeWidth=1;entryX=0.041;entryY=0.716;entryDx=0;entryDy=0;entryPerimeter=0;exitX=0.992;exitY=0.111;exitDx=0;exitDy=0;exitPerimeter=0;" edge="1" parent="1" source="JWIA_QnLZYUbKN6OW2iQ-5" target="JWIA_QnLZYUbKN6OW2iQ-8">
          <mxGeometry relative="1" as="geometry">
            <mxPoint x="440" y="190" as="sourcePoint" />
            <mxPoint x="640" y="190" as="targetPoint" />
            <Array as="points">
              <mxPoint x="610" y="190" />
            </Array>
          </mxGeometry>
        </mxCell>
        <mxCell id="JWIA_QnLZYUbKN6OW2iQ-12" value="" style="endArrow=classic;html=1;rounded=0;entryX=-0.114;entryY=0.206;entryDx=0;entryDy=0;entryPerimeter=0;exitX=1.069;exitY=0.754;exitDx=0;exitDy=0;exitPerimeter=0;" edge="1" parent="1" source="JWIA_QnLZYUbKN6OW2iQ-5" target="JWIA_QnLZYUbKN6OW2iQ-10">
          <mxGeometry width="50" height="50" relative="1" as="geometry">
            <mxPoint x="440" y="364" as="sourcePoint" />
            <mxPoint x="550" y="300" as="targetPoint" />
          </mxGeometry>
        </mxCell>
        <mxCell id="JWIA_QnLZYUbKN6OW2iQ-13" value="&lt;div style=&quot;text-align: center;&quot;&gt;&lt;span style=&quot;font-size: 11px; background-color: rgb(255, 255, 255);&quot;&gt;BackGround Image&lt;/span&gt;&lt;/div&gt;" style="text;whiteSpace=wrap;html=1;" vertex="1" parent="1">
          <mxGeometry x="510" y="340" width="100" height="30" as="geometry" />
        </mxCell>
      </root>
    </mxGraphModel>
  </diagram>
</mxfile>
